<svg width="341" height="140" viewBox="0 0 341 140" fill="none" xmlns="http://www.w3.org/2000/svg">
<rect width="341" height="140" rx="7" fill="#EEFAE8" fill-opacity="0.64"/>
<g clip-path="url(#clip0)">
<path d="M187.451 10.4729L230.271 30.9108L175.176 47.2689L131.744 25.1406L187.451 10.4729Z" fill="#F0F4FA"/>
<path d="M230.018 79.7365L175.076 99.2525V47.0743L230.271 30.9109L230.018 79.7365Z" fill="#E6EAEF"/>
<path d="M131.744 25.1407L131.862 72.8933L175.076 99.2526V47.0744L131.744 25.1407Z" fill="white"/>
<path d="M147.805 33.2644L204.068 18.4021L210.007 21.2296L154.121 36.4838L147.805 33.2644Z" fill="#75D784"/>
<path d="M155.988 18.7788L198.951 40.0824L206.309 37.9694L162.706 17.0065L155.988 18.7788Z" fill="#75D784"/>
<path d="M198.951 40.0824L206.309 37.9695V54.7603L199.215 57.8568L198.951 40.0824Z" fill="#66BF74"/>
<path d="M147.805 33.2645L154.121 36.4839V54.6475L147.779 50.7239L147.805 33.2645Z" fill="#66BF74"/>
<path d="M198.285 80.2232L198.27 79.9082L198.142 79.9492V80.2642C196.349 80.9096 196.195 83.1813 196.195 83.1813C196.195 83.1813 197.117 82.6102 197.476 83.1096C197.697 82.8847 197.957 82.7017 198.244 82.5692L198.349 85.0228C198.358 85.1849 198.358 85.3473 198.349 85.5094C198.326 85.6733 198.193 85.6579 198.172 85.5248C198.152 85.3916 198.08 85.4351 198.067 85.5248C198.054 85.6144 198.142 85.8372 198.323 85.7527C198.374 85.7289 198.417 85.6908 198.447 85.643C198.476 85.5953 198.491 85.54 198.49 85.4838L198.469 84.9716L198.362 82.5103C198.639 82.4026 198.947 82.4082 199.22 82.5257C199.22 82.5257 199.968 81.637 200.452 81.8803C200.472 81.888 200.216 79.6418 198.285 80.2232Z" fill="#5B534D"/>
<path d="M201.43 80.1923C201.379 79.0014 200.526 78.3022 199.527 78.6275L196.856 79.5059C195.857 79.8337 195.086 81.0682 195.137 82.2591L195.273 85.4452C195.324 86.6336 196.18 87.3354 197.179 87.0075L199.85 86.1316C200.849 85.8038 201.62 84.5693 201.568 83.3784L201.43 80.1923ZM199.827 85.5707L197.153 86.4466C196.418 86.7027 195.788 86.1726 195.749 85.2941L195.611 82.1081C195.575 81.2296 196.144 80.3152 196.892 80.077L199.566 79.2012C200.301 78.945 200.931 79.4752 200.969 80.3537L201.105 83.5397C201.13 84.4131 200.562 85.3223 199.827 85.5656V85.5707Z" fill="#5B534D"/>
<path d="M188.996 87.5428L189.326 87.4353L189.216 84.8921L189.81 84.6974L188.983 83.3784L188.294 85.1943L188.886 84.9996L188.996 87.5428Z" fill="#5B534D"/>
<path d="M188.422 88.1063L188.44 88.4981L192.184 87.2688L192.169 86.877L188.422 88.1063Z" fill="#5B534D"/>
<path d="M190.548 84.4543L191.142 84.2596L191.252 86.8028L191.582 86.6953L191.472 84.1521L192.067 83.9574L191.239 82.6384L190.548 84.4543Z" fill="#5B534D"/>
<path d="M191.393 81.2551L188.719 82.1336C187.72 82.4614 186.949 83.6959 187.001 84.8843L187.139 88.0703C187.19 89.2613 188.043 89.963 189.042 89.6352L191.716 88.7567C192.712 88.4314 193.483 87.1944 193.432 86.006L193.296 82.82C193.245 81.6291 192.389 80.9222 191.393 81.2551ZM191.69 88.1907L189.016 89.0692C188.281 89.3099 187.651 88.7926 187.613 87.9167L187.477 84.7306C187.439 83.8521 188.007 82.9378 188.742 82.6996L191.416 81.8211C192.154 81.5804 192.781 82.0977 192.819 82.9762L192.958 86.1623C192.994 87.0382 192.428 87.95 191.69 88.1907Z" fill="#5B534D"/>
<path d="M181.922 85.5809L181.822 85.6142L182.078 86.3288L182.293 86.1162L182.583 87.2559L182.204 86.4108L182.027 86.5875L181.663 85.6655L181.187 85.8191C181.187 85.8191 180.662 87.3942 180.856 88.2266C181.025 88.9463 181.791 88.7132 181.996 88.6364L182.073 90.5726C181.785 90.7002 181.516 90.8664 181.274 91.0669C181.241 91.0925 181.251 91.1489 181.274 91.1361L182.998 90.5803C183.031 90.5803 183.038 90.5086 182.998 90.5035C182.723 90.4565 182.441 90.4661 182.17 90.5316L182.093 88.598C182.359 88.5342 182.601 88.3944 182.789 88.1957C182.977 87.997 183.103 87.7478 183.151 87.4788C183.277 86.5414 182.639 85.3428 182.639 85.3428L181.922 85.5809Z" fill="#5B534D"/>
<path d="M183.205 83.906L180.531 84.7691C179.532 85.0918 178.759 86.3237 178.805 87.5146L178.93 90.7058C178.977 91.8968 179.827 92.6036 180.826 92.2809L183.5 91.4178C184.498 91.0951 185.272 89.8632 185.226 88.6723L185.1 85.4811C185.054 84.2902 184.204 83.5833 183.205 83.906ZM184.742 88.8259C184.775 89.7044 184.204 90.6188 183.461 90.8518L180.79 91.7149C180.052 91.9506 179.425 91.4306 179.391 90.5522L179.266 87.361C179.23 86.4825 179.801 85.5682 180.546 85.3377L183.22 84.472C183.955 84.2364 184.583 84.7563 184.619 85.6348L184.742 88.8259Z" fill="#5B534D"/>
<path d="M228.066 66.339C223.581 63.7496 216.328 63.7496 211.869 66.339C209.649 67.6195 208.54 69.3201 208.54 71.0105V71.0284L208.465 97.5362C208.465 99.2445 209.587 100.958 211.846 102.262C216.333 104.851 223.581 104.853 228.038 102.262C230.253 100.981 231.367 99.2906 231.367 97.6028L231.441 71.0591C231.447 71.1898 230.473 67.7297 228.066 66.339Z" fill="#F2F6F9"/>
<path d="M232.743 70.5319L232.661 72.5066C232.661 74.3608 231.436 76.2125 229.003 77.6288C224.101 80.4768 216.134 80.4743 211.203 77.6288C208.719 76.1972 207.482 74.3147 207.485 72.4374L207.569 70.4602C207.569 72.3401 208.804 74.2225 211.285 75.6542C216.216 78.5022 224.186 78.5048 229.085 75.6542C231.518 74.2379 232.738 72.3862 232.743 70.5319Z" fill="#EEEEEE"/>
<path d="M229.033 65.3404C233.966 68.1884 233.992 72.8062 229.092 75.6541C224.193 78.5021 216.223 78.497 211.292 75.6541C206.362 72.8113 206.331 68.1935 211.231 65.3455C216.13 62.4975 224.103 62.4822 229.033 65.3404Z" fill="#E8E6E6"/>
<path d="M228.389 57.7644C232.873 60.3563 232.899 64.5566 228.44 67.1484C223.981 69.7403 216.733 69.7352 212.246 67.1484C207.759 64.5617 207.733 60.3589 212.189 57.767C216.646 55.1751 223.907 55.1751 228.389 57.7644Z" fill="#E0E0E0"/>
<path d="M231.774 62.4821L231.698 69.4894C231.698 71.1746 230.584 72.8599 228.368 74.1456C223.909 76.7374 216.661 76.7349 212.174 74.1456C209.915 72.8419 208.788 71.1311 208.793 69.4228L208.868 62.4155C208.868 64.1238 209.989 65.8372 212.248 67.1408C216.735 69.7302 223.986 69.7327 228.442 67.1408C230.66 65.8603 231.769 64.1776 231.774 62.4821Z" fill="#EEEEEE"/>
<path d="M231.774 62.4821L231.698 69.4894C231.698 71.1746 230.584 72.8599 228.368 74.1456C223.909 76.7374 216.661 76.7349 212.174 74.1456C209.915 72.8419 208.788 71.1311 208.793 69.4228L208.868 62.4155C208.868 64.1238 209.989 65.8372 212.248 67.1408C216.735 69.7302 223.986 69.7327 228.442 67.1408C230.658 65.8603 231.772 64.1699 231.772 62.4821H231.774Z" fill="#EEEEEE"/>
<path d="M219.407 76.0715C219.955 76.0954 220.502 76.0954 221.048 76.0715V69.0668C220.503 69.0873 219.952 69.0873 219.407 69.0668V76.0715Z" fill="#E8E6E6"/>
<path d="M228.389 57.7644C232.873 60.3563 232.899 64.5566 228.44 67.1484C223.981 69.7403 216.733 69.7352 212.246 67.1484C207.759 64.5617 207.733 60.3589 212.189 57.767C216.646 55.1751 223.907 55.1751 228.389 57.7644Z" fill="#E8E6E6"/>
<path d="M230.576 65.4197C230.499 65.5093 230.422 65.5938 230.34 65.6758C230.258 65.7578 230.192 65.8244 230.115 65.8961C229.891 66.1088 229.656 66.3088 229.411 66.4954L229.339 66.5517V73.495C229.984 73.0231 230.54 72.4403 230.981 71.7739V64.8998C230.927 64.9792 230.865 65.056 230.804 65.1328C230.742 65.2097 230.655 65.33 230.576 65.4197Z" fill="#E8E6E6"/>
<path d="M226.97 67.8604C226.698 67.9731 226.422 68.0755 226.14 68.1703V75.1494C226.703 74.9553 227.252 74.7243 227.784 74.4579V67.4916C227.528 67.6145 227.272 67.7298 227.016 67.8399L226.97 67.8604Z" fill="#E8E6E6"/>
<path d="M222.826 68.9284V75.9255C223.382 75.8512 223.932 75.7565 224.468 75.6361V68.6442H224.427C223.914 68.7569 223.402 68.8465 222.864 68.9156L222.826 68.9284Z" fill="#E8E6E6"/>
<path d="M215.988 75.6106C216.523 75.736 217.074 75.8308 217.629 75.9077V68.885C217.373 68.8466 217.102 68.8056 216.838 68.7569C216.748 68.7416 216.661 68.7211 216.582 68.7031C216.387 68.6647 216.19 68.6263 215.998 68.5802L215.988 75.6106Z" fill="#E8E6E6"/>
<path d="M213.534 67.7709C213.26 67.6531 212.999 67.5276 212.743 67.3944V74.4401C213.273 74.7093 213.822 74.9421 214.384 75.1368V68.1167C214.103 68.0168 213.829 67.9066 213.562 67.7914L213.534 67.7709Z" fill="#E8E6E6"/>
<path d="M209.585 71.8534C210.032 72.4991 210.588 73.0631 211.226 73.5207V66.4545C210.736 66.0858 210.295 65.6554 209.915 65.1739L209.9 65.156C209.784 65.0074 209.679 64.8589 209.585 64.7103V71.8534Z" fill="#E8E6E6"/>
<path d="M224.124 93.4232C222.57 92.5268 221.307 93.2464 221.307 95.0367C221.307 96.8269 222.401 99.1115 223.958 100.01C225.515 100.909 226.939 100.077 226.944 98.2893C226.949 96.5017 225.682 94.3221 224.124 93.4232Z" fill="#CACBCC"/>
<path d="M224.063 94.0891L224.045 100.464C225.361 100.95 226.365 100.208 226.371 98.6146C226.376 97.0216 225.379 95.1212 224.063 94.0891Z" fill="#EDEEEF"/>
<path d="M221.558 93.5537C221.789 93.4343 222.044 93.3683 222.304 93.3608C222.563 93.3532 222.822 93.4043 223.059 93.5102L223.443 93.2771C223.62 93.3417 223.792 93.4214 223.955 93.5153C224.128 93.6182 224.294 93.732 224.452 93.8559L224.071 94.089C225.387 95.1135 226.376 97.0215 226.376 98.6145C226.376 99.5007 226.061 100.126 225.553 100.42L226.401 99.931C226.913 99.6364 227.221 99.0115 227.226 98.1228C227.226 96.33 225.971 94.1582 224.409 93.2566C223.64 92.8033 222.918 92.7623 222.406 93.0594L221.558 93.5537Z" fill="#E2E2E2"/>
<path d="M223.044 99.8823L223.443 99.639L223.435 93.2771L223.059 93.5102L223.044 99.8823Z" fill="#D6D6D6"/>
<path d="M223.059 93.5103C221.742 93.0237 220.754 93.7664 220.736 95.3595C220.718 96.9525 221.727 98.8503 223.041 99.8825L223.059 93.5103Z" fill="#EDEEEF"/>
<path d="M216.505 92.6499C218.234 91.6485 219.64 92.4501 219.645 94.4427C219.65 96.4353 218.431 98.9734 216.702 99.9696C214.973 100.966 213.388 100.046 213.373 98.059C213.357 96.0716 214.774 93.6462 216.505 92.6499Z" fill="#CACBCC"/>
<path d="M216.574 93.3875L216.592 100.466C215.127 101.009 214.013 100.182 214.008 98.4175C214.003 96.6529 215.109 94.5348 216.574 93.3875Z" fill="#EDEEEF"/>
<path d="M218.416 92.2477C217.844 91.9148 217.056 91.9609 216.187 92.4654C214.459 93.4617 213.06 95.882 213.065 97.8694C213.065 98.858 213.419 99.5495 213.98 99.8774L214.922 100.42C214.359 100.093 214.01 99.3959 214.008 98.4124C214.008 96.6452 215.109 94.5348 216.569 93.3874L216.144 93.1313C216.319 92.9923 216.504 92.8656 216.697 92.7522C216.876 92.6503 217.064 92.5646 217.258 92.4961L217.683 92.7522C217.947 92.6352 218.234 92.5786 218.522 92.5866C218.81 92.5946 219.094 92.6669 219.35 92.7984L218.416 92.2477Z" fill="#E2E2E2"/>
<path d="M217.706 99.8235L217.263 99.552L217.271 92.4833L217.688 92.7445L217.706 99.8235Z" fill="#D6D6D6"/>
<path d="M217.688 92.7446C219.151 92.2017 220.265 93.0289 220.27 94.7935C220.275 96.5581 219.169 98.6711 217.709 99.8185L217.688 92.7446Z" fill="#EDEEEF"/>
<path d="M217.944 97.9642C216.387 98.8632 216.379 100.323 217.926 101.219C219.473 102.116 221.986 102.118 223.543 101.219C225.1 100.32 225.108 98.8632 223.561 97.9642C222.014 97.0653 219.499 97.0576 217.944 97.9642Z" fill="#CACBCC"/>
<path d="M218.5 97.283L218.503 97.7081L224.012 100.91L224.009 100.484L218.5 97.283Z" fill="#D6D6D6"/>
<path d="M224.729 99.5878C224.729 99.219 224.729 99.5288 224.729 99.1626C224.716 99.4229 224.645 99.6769 224.52 99.906C224.396 100.135 224.223 100.334 224.012 100.487V100.899C224.221 100.748 224.394 100.551 224.518 100.324C224.642 100.098 224.714 99.8459 224.729 99.5878Z" fill="#E2E2E2"/>
<path d="M218.5 97.2854L224.009 100.487C225.09 99.5878 224.946 98.3482 223.571 97.5466C222.196 96.745 220.052 96.6604 218.5 97.2854Z" fill="#EDEEEF"/>
<path d="M217.914 100.809C219.289 101.611 221.433 101.698 222.985 101.066V101.478C223.176 101.406 223.362 101.32 223.54 101.222C223.706 101.128 223.863 101.019 224.009 100.896V100.489C224.22 100.336 224.394 100.138 224.518 99.9086C224.642 99.6794 224.713 99.4254 224.726 99.1651V99.5903C224.726 99.6492 224.726 100.023 224.726 100.023C224.726 100.615 224.334 101.209 223.553 101.662C221.996 102.559 219.481 102.559 217.937 101.662C217.716 101.535 217.511 101.382 217.327 101.206C216.884 100.771 216.782 100.525 216.782 100.046C216.782 99.9514 216.782 99.3777 216.782 99.0217C216.807 99.3902 216.924 99.7465 217.122 100.059C217.319 100.371 217.592 100.629 217.914 100.809Z" fill="#E2E2E2"/>
<path d="M217.476 97.8719C216.395 98.7684 216.538 100.011 217.914 100.81C219.289 101.609 221.433 101.698 222.985 101.066L217.476 97.8719Z" fill="#EDEEEF"/>
<path d="M229.075 80.0566C229.074 79.9337 229.042 79.8131 228.98 79.7069C228.918 79.6007 228.829 79.5125 228.723 79.4513C228.616 79.3901 228.495 79.358 228.372 79.3582C228.249 79.3583 228.129 79.3907 228.022 79.4522C223.625 81.9416 216.607 81.957 212.143 79.5059C212.034 79.4468 211.911 79.4172 211.786 79.4201C211.662 79.4229 211.54 79.4581 211.433 79.5222C211.327 79.5863 211.239 79.677 211.178 79.7856C211.117 79.8941 211.085 80.0166 211.085 80.1411V86.1444C211.072 86.5402 211.166 86.9321 211.357 87.2789C211.548 87.6256 211.83 87.9141 212.171 88.1139C216.677 90.524 223.697 90.4677 228.051 87.9372C228.381 87.722 228.649 87.4243 228.829 87.0734C229.008 86.7225 229.093 86.3308 229.075 85.937V80.0566Z" fill="#76B5FF"/>
<path opacity="0.2" d="M179.443 129.108L182.997 129.569L214.817 116.217L211.019 113.441L179.443 129.108Z" fill="#F5F5F5"/>
<path d="M163.607 115.91L177.693 126.746C178.951 127.712 181.159 127.999 182.629 127.387L211.411 115.393C212.151 115.085 212.561 114.609 212.627 114.089L212.438 115.585C212.401 115.801 212.317 116.007 212.192 116.188C212.067 116.369 211.903 116.519 211.713 116.63C211.558 116.731 211.393 116.817 211.221 116.886L182.439 128.88C180.969 129.492 178.761 129.205 177.504 128.239L163.418 117.403C162.795 116.924 162.524 116.379 162.588 115.867C162.652 115.354 162.713 114.868 162.777 114.368C162.713 114.875 162.985 115.431 163.607 115.91Z" fill="#6A7279"/>
<path d="M163.994 113.054C162.524 113.666 162.352 114.947 163.607 115.91L177.693 126.746C178.951 127.712 181.159 127.999 182.629 127.387L211.411 115.393C212.881 114.781 213.053 113.503 211.798 112.537L197.711 101.701C196.454 100.738 194.246 100.451 192.776 101.063L163.994 113.054Z" fill="#949A9F"/>
<path d="M167.638 113.408C166.061 114.066 165.874 115.439 167.223 116.481C168.573 117.524 170.947 117.826 172.525 117.168C174.103 116.509 174.29 115.137 172.94 114.094C171.59 113.052 169.226 112.75 167.638 113.408Z" fill="#CACBCC"/>
<path d="M168.245 112.832L168.197 113.234L173.004 116.927L173.053 116.527L168.245 112.832Z" fill="#D6D6D6"/>
<path d="M173.836 115.767C173.88 115.421 173.836 115.713 173.885 115.367C173.842 115.611 173.744 115.842 173.599 116.043C173.454 116.244 173.265 116.41 173.047 116.527L172.999 116.929C173.217 116.811 173.405 116.645 173.55 116.443C173.695 116.242 173.793 116.011 173.836 115.767Z" fill="#E2E2E2"/>
<path d="M168.245 112.832L173.053 116.527C174.185 115.813 174.2 114.624 172.999 113.71C171.798 112.796 169.787 112.424 168.245 112.832Z" fill="#EDEEEF"/>
<path d="M167.262 116.089C168.463 117.011 170.474 117.37 172.015 116.958L171.967 117.347C172.157 117.299 172.343 117.237 172.525 117.162C172.692 117.091 172.853 117.005 173.006 116.906L173.053 116.52C173.271 116.402 173.459 116.236 173.604 116.035C173.749 115.835 173.847 115.603 173.89 115.359L173.841 115.759C173.841 115.815 173.78 116.166 173.78 116.166C173.708 116.727 173.268 117.239 172.474 117.57C170.894 118.228 168.519 117.921 167.17 116.883C166.979 116.734 166.807 116.562 166.657 116.371C166.294 115.905 166.227 115.662 166.283 115.208C166.283 115.119 166.36 114.578 166.404 114.233C166.378 114.589 166.443 114.947 166.594 115.272C166.744 115.596 166.973 115.878 167.262 116.089Z" fill="#E2E2E2"/>
<path d="M167.208 113.262C166.079 113.977 166.061 115.165 167.262 116.079C168.463 116.994 170.473 117.36 172.015 116.947L167.208 113.262Z" fill="#EDEEEF"/>
<path d="M175.87 110.004C174.292 110.66 174.105 112.035 175.455 113.077C176.805 114.12 179.179 114.422 180.757 113.764C182.334 113.106 182.521 111.733 181.171 110.69C179.822 109.648 177.45 109.351 175.87 110.004Z" fill="#CACBCC"/>
<path d="M176.477 109.428L176.428 109.827L181.238 113.523L181.287 113.121L176.477 109.428Z" fill="#D6D6D6"/>
<path d="M182.076 112.363C182.119 112.017 182.076 112.307 182.124 111.961C182.08 112.205 181.982 112.436 181.837 112.637C181.692 112.838 181.504 113.005 181.287 113.124L181.238 113.523C181.455 113.404 181.643 113.239 181.788 113.038C181.933 112.837 182.031 112.607 182.076 112.363Z" fill="#E2E2E2"/>
<path d="M176.479 109.428L181.287 113.124C182.416 112.409 182.434 111.221 181.23 110.306C180.027 109.392 178.021 109.028 176.479 109.428Z" fill="#EDEEEF"/>
<path d="M175.493 112.681C176.697 113.605 178.708 113.961 180.247 113.549L180.201 113.938C180.39 113.891 180.576 113.831 180.757 113.756C180.925 113.686 181.086 113.6 181.238 113.5L181.287 113.116C181.504 112.997 181.692 112.831 181.837 112.629C181.982 112.428 182.08 112.197 182.124 111.953L182.076 112.355C182.076 112.409 182.011 112.762 182.011 112.762C181.94 113.321 181.499 113.836 180.705 114.166C179.128 114.822 176.751 114.514 175.404 113.48C175.212 113.331 175.04 113.159 174.891 112.967C174.525 112.501 174.459 112.258 174.518 111.805C174.518 111.715 174.592 111.175 174.638 110.829C174.612 111.185 174.677 111.541 174.827 111.865C174.977 112.189 175.206 112.469 175.493 112.681Z" fill="#E2E2E2"/>
<path d="M175.44 109.863C174.31 110.578 174.295 111.766 175.493 112.68C176.692 113.595 178.708 113.961 180.247 113.549L175.44 109.863Z" fill="#EDEEEF"/>
<path d="M184.101 106.598C182.524 107.256 182.339 108.629 183.686 109.671C185.034 110.714 187.41 111.016 188.991 110.358C190.571 109.699 190.753 108.327 189.406 107.284C188.058 106.242 185.682 105.94 184.101 106.598Z" fill="#CACBCC"/>
<path d="M184.711 106.021L184.662 106.424L189.47 110.117L189.518 109.717L184.711 106.021Z" fill="#D6D6D6"/>
<path d="M190.307 108.957C190.351 108.611 190.307 108.903 190.356 108.557C190.311 108.801 190.213 109.031 190.068 109.232C189.923 109.433 189.735 109.599 189.518 109.717L189.459 110.119C189.679 110.001 189.869 109.836 190.015 109.634C190.162 109.433 190.262 109.201 190.307 108.957Z" fill="#E2E2E2"/>
<path d="M184.711 106.022L189.518 109.717C190.65 109.003 190.666 107.814 189.464 106.9C188.263 105.986 186.253 105.625 184.711 106.022Z" fill="#EDEEEF"/>
<path d="M183.727 109.279C184.929 110.201 186.939 110.56 188.481 110.147L188.432 110.537C188.622 110.488 188.809 110.427 188.991 110.352C189.158 110.28 189.319 110.194 189.472 110.096L189.518 109.709C189.735 109.591 189.924 109.425 190.068 109.224C190.213 109.024 190.311 108.793 190.356 108.549L190.307 108.949C190.307 109.005 190.243 109.356 190.243 109.356C190.174 109.917 189.731 110.429 188.937 110.76C187.359 111.418 184.985 111.11 183.635 110.073C183.444 109.924 183.272 109.752 183.123 109.561C182.757 109.095 182.69 108.852 182.749 108.398C182.749 108.309 182.826 107.766 182.869 107.422C182.844 107.779 182.909 108.137 183.059 108.461C183.209 108.786 183.439 109.067 183.727 109.279Z" fill="#E2E2E2"/>
<path d="M183.671 106.452C182.542 107.166 182.526 108.355 183.727 109.269C184.929 110.183 186.939 110.549 188.481 110.137L183.671 106.452Z" fill="#EDEEEF"/>
<path d="M192.335 103.204C190.758 103.86 190.571 105.235 191.921 106.278C193.27 107.32 195.644 107.622 197.222 106.964C198.8 106.306 198.987 104.933 197.637 103.891C196.287 102.848 193.913 102.536 192.335 103.204Z" fill="#CACBCC"/>
<path d="M192.942 102.618L192.894 103.017L197.701 106.713L197.75 106.311L192.942 102.618Z" fill="#D6D6D6"/>
<path d="M198.539 105.553C198.582 105.207 198.539 105.497 198.587 105.151C198.544 105.395 198.446 105.626 198.301 105.828C198.156 106.029 197.968 106.195 197.75 106.314L197.701 106.713C197.918 106.594 198.106 106.429 198.251 106.228C198.396 106.027 198.494 105.796 198.539 105.553Z" fill="#E2E2E2"/>
<path d="M192.942 102.618L197.75 106.314C198.882 105.599 198.897 104.411 197.696 103.496C196.495 102.582 194.484 102.218 192.942 102.618Z" fill="#EDEEEF"/>
<path d="M191.959 105.873C193.16 106.798 195.171 107.141 196.712 106.741L196.664 107.13C196.854 107.084 197.041 107.023 197.222 106.949C197.39 106.878 197.551 106.792 197.704 106.693L197.75 106.308C197.968 106.19 198.156 106.024 198.301 105.822C198.446 105.621 198.544 105.39 198.587 105.146L198.538 105.548C198.538 105.601 198.477 105.955 198.477 105.955C198.405 106.513 197.965 107.028 197.168 107.358C195.591 108.014 193.216 107.707 191.867 106.672C191.675 106.524 191.503 106.352 191.355 106.16C190.988 105.694 190.924 105.45 190.981 104.997C190.981 104.907 191.057 104.367 191.101 104.021C191.076 104.377 191.142 104.734 191.292 105.058C191.442 105.381 191.671 105.662 191.959 105.873Z" fill="#E2E2E2"/>
<path d="M191.905 103.048C190.773 103.763 190.758 104.951 191.959 105.865C193.16 106.78 195.171 107.133 196.712 106.734L191.905 103.048Z" fill="#EDEEEF"/>
<path d="M177.053 120.566C175.475 121.224 175.288 122.6 176.638 123.64C177.988 124.679 180.362 124.984 181.94 124.329C183.517 123.673 183.704 122.295 182.355 121.255C181.005 120.215 178.631 119.911 177.053 120.566Z" fill="#CACBCC"/>
<path d="M177.66 119.99L177.611 120.392L182.419 124.088L182.467 123.686L177.66 119.99Z" fill="#D6D6D6"/>
<path d="M183.256 122.925C183.3 122.582 183.256 122.871 183.305 122.525C183.262 122.77 183.164 123.001 183.019 123.202C182.874 123.403 182.686 123.568 182.467 123.686L182.419 124.088C182.637 123.969 182.825 123.803 182.97 123.602C183.115 123.401 183.213 123.169 183.256 122.925Z" fill="#E2E2E2"/>
<path d="M177.66 119.993L182.467 123.693C183.599 122.979 183.615 121.791 182.414 120.876C181.212 119.962 179.215 119.596 177.66 119.993Z" fill="#EDEEEF"/>
<path d="M176.677 123.248C177.878 124.17 179.888 124.528 181.43 124.116L181.381 124.505C181.572 124.458 181.758 124.397 181.94 124.323C182.108 124.253 182.269 124.167 182.421 124.067L182.467 123.681C182.686 123.563 182.874 123.398 183.019 123.197C183.164 122.996 183.262 122.765 183.305 122.52L183.256 122.92C183.256 122.976 183.195 123.33 183.195 123.33C183.123 123.888 182.683 124.4 181.886 124.733C180.308 125.389 177.934 125.082 176.584 124.044C176.394 123.895 176.222 123.723 176.072 123.532C175.706 123.066 175.642 122.823 175.698 122.369C175.698 122.28 175.775 121.739 175.819 121.394C175.793 121.75 175.859 122.107 176.009 122.431C176.159 122.755 176.389 123.036 176.677 123.248Z" fill="#E2E2E2"/>
<path d="M176.623 120.42C175.491 121.135 175.475 122.326 176.677 123.238C177.878 124.149 179.888 124.518 181.43 124.106L176.623 120.42Z" fill="#EDEEEF"/>
<path d="M185.285 117.162C183.707 117.821 183.52 119.193 184.87 120.236C186.219 121.278 188.594 121.58 190.171 120.922C191.749 120.264 191.936 118.891 190.586 117.849C189.236 116.806 186.862 116.504 185.285 117.162Z" fill="#CACBCC"/>
<path d="M185.892 116.586L185.843 116.986L190.653 120.681L190.701 120.282L185.892 116.586Z" fill="#D6D6D6"/>
<path d="M191.488 119.521C191.534 119.176 191.488 119.465 191.539 119.122C191.495 119.365 191.397 119.596 191.252 119.797C191.107 119.998 190.919 120.163 190.701 120.282L190.653 120.682C190.87 120.564 191.059 120.398 191.203 120.197C191.348 119.996 191.445 119.765 191.488 119.521Z" fill="#E2E2E2"/>
<path d="M185.892 116.586L190.701 120.282C191.831 119.567 191.846 118.379 190.645 117.465C189.444 116.55 187.433 116.189 185.892 116.586Z" fill="#EDEEEF"/>
<path d="M184.908 119.852C186.112 120.776 188.122 121.132 189.662 120.722L189.616 121.109C189.805 121.062 189.991 121.002 190.171 120.927C190.339 120.856 190.5 120.77 190.653 120.671L190.701 120.284C190.919 120.166 191.107 120 191.252 119.799C191.397 119.598 191.495 119.368 191.539 119.124L191.488 119.524C191.488 119.58 191.426 119.931 191.426 119.931C191.355 120.492 190.914 121.004 190.12 121.334C188.542 121.993 186.166 121.685 184.819 120.648C184.627 120.499 184.455 120.327 184.306 120.136C183.943 119.67 183.876 119.426 183.935 118.973C183.935 118.886 184.009 118.343 184.055 117.997C184.029 118.353 184.094 118.71 184.243 119.034C184.392 119.359 184.621 119.64 184.908 119.852Z" fill="#E2E2E2"/>
<path d="M184.849 117.017C183.72 117.731 183.704 118.92 184.903 119.834C186.102 120.748 188.117 121.115 189.656 120.705L184.849 117.017Z" fill="#EDEEEF"/>
<path d="M193.516 113.756C191.938 114.414 191.754 115.79 193.101 116.83C194.448 117.869 196.825 118.174 198.403 117.518C199.98 116.863 200.167 115.485 198.82 114.445C197.473 113.405 195.094 113.1 193.516 113.756Z" fill="#CACBCC"/>
<path d="M194.126 113.18L194.077 113.582L198.884 117.278L198.933 116.876L194.126 113.18Z" fill="#D6D6D6"/>
<path d="M199.722 116.115C199.765 115.772 199.722 116.061 199.77 115.715C199.727 115.959 199.629 116.19 199.484 116.391C199.339 116.591 199.15 116.757 198.933 116.876L198.884 117.278C199.102 117.159 199.29 116.993 199.435 116.791C199.58 116.59 199.678 116.359 199.722 116.115Z" fill="#E2E2E2"/>
<path d="M194.126 113.193L198.933 116.886C200.062 116.171 200.08 114.983 198.879 114.069C197.678 113.154 195.667 112.783 194.126 113.193Z" fill="#EDEEEF"/>
<path d="M193.142 116.438C194.343 117.36 196.354 117.705 197.893 117.306L197.847 117.695C198.036 117.648 198.222 117.587 198.403 117.513C198.571 117.443 198.733 117.357 198.887 117.257L198.933 116.87C199.15 116.752 199.339 116.586 199.484 116.386C199.629 116.185 199.727 115.954 199.77 115.71L199.722 116.11C199.722 116.166 199.658 116.52 199.658 116.52C199.589 117.078 199.146 117.59 198.352 117.923C196.774 118.579 194.4 118.271 193.05 117.234C192.859 117.085 192.687 116.913 192.538 116.722C192.172 116.256 192.105 116.012 192.164 115.559C192.164 115.47 192.241 114.929 192.284 114.583C192.259 114.94 192.324 115.297 192.474 115.621C192.624 115.946 192.854 116.226 193.142 116.438Z" fill="#E2E2E2"/>
<path d="M193.086 113.61C191.956 114.325 191.941 115.516 193.142 116.427C194.343 117.339 196.354 117.695 197.893 117.296L193.086 113.61Z" fill="#EDEEEF"/>
<path d="M201.753 110.353C200.175 111.011 199.988 112.384 201.338 113.426C202.688 114.468 205.062 114.771 206.639 114.112C208.217 113.454 208.404 112.081 207.054 111.039C205.705 109.997 203.328 109.694 201.753 110.353Z" fill="#CACBCC"/>
<path d="M202.357 109.776L202.309 110.176L207.116 113.871L207.164 113.472L202.357 109.776Z" fill="#D6D6D6"/>
<path d="M207.953 112.711C207.997 112.365 207.953 112.655 208.002 112.312C207.958 112.555 207.86 112.786 207.715 112.987C207.57 113.188 207.382 113.353 207.164 113.472L207.116 113.871C207.333 113.753 207.522 113.587 207.666 113.386C207.811 113.186 207.909 112.955 207.953 112.711Z" fill="#E2E2E2"/>
<path d="M202.357 109.776L207.164 113.472C208.296 112.757 208.312 111.569 207.111 110.655C205.909 109.74 203.899 109.379 202.357 109.776Z" fill="#EDEEEF"/>
<path d="M201.374 113.031C202.575 113.956 204.585 114.312 206.127 113.902L206.079 114.289C206.269 114.243 206.456 114.182 206.637 114.107C206.804 114.035 206.965 113.95 207.118 113.851L207.164 113.464C207.382 113.346 207.57 113.18 207.715 112.98C207.86 112.779 207.958 112.548 208.002 112.304L207.953 112.704C207.953 112.76 207.889 113.111 207.889 113.111C207.82 113.672 207.377 114.184 206.583 114.514C205.005 115.173 202.631 114.865 201.282 113.828C201.09 113.68 200.918 113.507 200.769 113.316C200.403 112.85 200.339 112.606 200.395 112.153C200.395 112.066 200.472 111.523 200.516 111.177C200.49 111.534 200.556 111.891 200.706 112.215C200.856 112.539 201.086 112.82 201.374 113.031Z" fill="#E2E2E2"/>
<path d="M201.32 110.206C200.188 110.921 200.173 112.109 201.374 113.024C202.575 113.938 204.585 114.304 206.127 113.894L201.32 110.206Z" fill="#EDEEEF"/>
<path d="M200.833 107.896C201.089 108.088 201.054 108.342 200.764 108.462L173.516 119.875C173.355 119.933 173.183 119.952 173.013 119.93C172.843 119.908 172.681 119.846 172.54 119.749C172.483 119.722 172.436 119.678 172.406 119.622C172.375 119.567 172.363 119.503 172.371 119.44C172.378 119.377 172.406 119.319 172.448 119.272C172.491 119.225 172.548 119.194 172.61 119.181L199.858 107.768C200.019 107.711 200.191 107.693 200.361 107.715C200.53 107.737 200.692 107.799 200.833 107.896Z" fill="#808488"/>
<path d="M221.515 123.319L221.456 125.138C221.438 125.722 221.038 126.296 220.257 126.721C218.684 127.576 216.159 127.507 214.622 126.562C213.854 126.088 213.478 125.484 213.496 124.889L213.552 123.074C213.534 123.668 213.908 124.272 214.679 124.746C216.215 125.689 218.728 125.771 220.313 124.905C221.082 124.48 221.494 123.906 221.515 123.319Z" fill="#E2E2E2"/>
<path d="M220.388 121.645C221.925 122.59 221.889 124.047 220.317 124.902C218.744 125.758 216.219 125.686 214.682 124.744C213.145 123.801 213.184 122.344 214.756 121.486C216.329 120.628 218.857 120.705 220.388 121.645Z" fill="#F5F5F5"/>
<path d="M229.738 113.925L229.68 115.744C229.664 116.328 229.262 116.901 228.481 117.326C226.908 118.182 224.383 118.11 222.846 117.168C222.078 116.694 221.701 116.089 221.719 115.495L221.776 113.679C221.758 114.271 222.132 114.878 222.903 115.352C224.439 116.294 226.952 116.376 228.524 115.511C229.306 115.086 229.705 114.512 229.726 113.925H229.738Z" fill="#E2E2E2"/>
<path d="M228.61 112.253C230.147 113.198 230.111 114.655 228.539 115.511C226.966 116.366 224.441 116.294 222.917 115.352C221.393 114.409 221.419 112.952 222.991 112.094C224.564 111.236 227.079 111.31 228.61 112.253Z" fill="#F5F5F5"/>
<path d="M234.113 122.413L234.056 124.228C234.038 124.815 233.636 125.389 232.855 125.814C231.285 126.669 228.757 126.598 227.236 125.655C226.468 125.179 226.089 124.574 226.109 123.983L226.166 122.167C226.145 122.758 226.522 123.363 227.292 123.837C228.829 124.782 231.342 124.861 232.912 123.995C233.693 123.573 234.095 122.999 234.113 122.413Z" fill="#E2E2E2"/>
<path d="M233 120.73C234.537 121.673 234.498 123.132 232.926 123.985C231.353 124.838 228.828 124.771 227.307 123.826C225.785 122.881 225.806 121.427 227.378 120.571C228.951 119.716 231.463 119.788 233 120.73Z" fill="#F5F5F5"/>
<g opacity="0.2">
<path opacity="0.2" d="M250.463 100.617C255.222 103.363 255.245 107.817 250.514 110.565C245.784 113.313 238.101 113.313 233.355 110.565C228.609 107.817 228.573 103.366 233.298 100.617C238.024 97.8694 245.702 97.8694 250.463 100.617Z" fill="#191617"/>
</g>
<path d="M252.146 92.9007C252.146 93.8816 252.146 88.6082 252.146 85.8858C252.146 85.0098 249.982 90.4958 249.096 91.1131C248.909 90.9876 248.719 90.8569 248.517 90.7417C243.115 87.489 233.985 87.6683 228.939 91.1694C226.89 89.7608 225.866 88.0269 225.866 86.3032C225.866 86.5081 225.889 102.73 225.897 102.935C225.898 102.923 225.898 102.91 225.897 102.897C225.897 109.651 240.083 113.223 248.332 108.275C253.076 105.445 252.177 103.811 252.146 92.9007Z" fill="#E2E2E2"/>
<path d="M227.697 95.5209C227.697 97.0575 228.75 98.6915 230.855 99.9593C235.196 102.572 242.38 102.643 246.906 100.123C249.234 98.8247 250.404 97.0908 250.399 95.3595L227.697 95.5209Z" fill="#071E2A"/>
<path d="M227.71 102.118L227.695 90.1886C227.695 90.2834 227.638 89.5406 227.784 89.6252C229.979 90.8904 247.789 90.204 250.222 88.9772C250.407 88.885 250.397 90.2347 250.397 90.122L250.412 102.052C250.412 103.783 249.247 105.514 246.919 106.813C242.396 109.336 235.209 109.264 230.87 106.652C228.763 105.371 227.715 103.75 227.71 102.118Z" fill="#8DD6A2"/>
<path d="M249.405 81.4345C245.927 78.7606 240.306 77.9743 236.103 78.6172C226.025 80.0105 222.503 87.3251 229.51 91.5535C234.538 94.5782 242.859 94.6627 248.099 91.7405C252.953 89.0334 253.255 84.8638 250.023 81.9416L249.405 81.4345ZM244.194 88.954C241.202 90.6213 236.449 90.5726 233.58 88.8464C230.712 87.1202 230.809 84.3669 233.8 82.6996C236.792 81.0323 241.543 81.081 244.414 82.8072C247.285 84.5334 247.185 87.2764 244.194 88.9463V88.954Z" fill="#EFEFEF"/>
<path d="M248.084 82.1696C248.058 81.5959 247.984 79.8645 245.441 78.292C245.481 78.3207 245.512 78.3597 245.531 78.4048C245.551 78.4499 245.557 78.4994 245.551 78.5481C247.239 79.5726 248.079 80.8711 248.084 82.1824V82.1696Z" fill="#436663"/>
<path d="M248.084 82.9867C248.084 82.0365 248.34 80.213 245.551 78.5354V79.355C247.239 80.3794 248.079 81.6779 248.081 82.9867H248.084Z" fill="#85CCC6"/>
<path d="M245.441 78.2919C239.332 74.8754 230.03 77.2265 229.89 82.2207C229.877 77.5261 239.842 75.0982 245.551 78.5353C245.557 78.4866 245.551 78.4371 245.531 78.392C245.512 78.3469 245.481 78.3079 245.441 78.2792V78.2919Z" fill="#436663"/>
<path d="M245.548 79.3549V78.5353C239.847 75.1034 229.872 77.5108 229.887 82.2208V83.0404C229.887 78.3176 239.875 75.9357 245.551 79.3549H245.548Z" fill="#85CCC6"/>
<path d="M231.49 85.8396C232.292 85.8396 232.94 85.3043 232.94 84.6512C232.94 87.7067 239.325 89.3074 243.184 87.156C244.427 86.4645 245.049 85.5399 245.046 84.6154C245.046 85.2684 245.702 85.7986 246.501 85.796C246.501 86.9409 245.733 88.0857 244.196 88.9462C241.205 90.6135 236.451 90.5649 233.583 88.8387C232.189 87.9986 231.495 86.9204 231.493 85.8396H231.49Z" fill="#EAEAEA"/>
<path d="M232.94 84.6513C233.001 86.0881 235.516 87.2688 237.826 87.4686C241.906 87.8272 244.998 86.1573 245.046 84.6129C245.046 85.5375 244.427 86.4621 243.184 87.1536C239.327 89.3049 232.94 87.7042 232.94 84.6488V84.6513Z" fill="#6AA29D"/>
<path d="M245.144 78.2306C248.45 80.2206 248.337 83.3939 244.887 85.3173C241.438 87.2407 235.962 87.1844 232.655 85.1918C229.349 83.1992 229.459 80.0285 232.912 78.1076C236.364 76.1868 241.835 76.2406 245.144 78.2306Z" fill="#8FDCA5"/>
<path d="M248.022 82.1696C248.022 82.1696 245.617 86.3802 238.918 86.3802C232.218 86.3802 229.825 81.8392 229.825 81.8392V76.7708L248.102 77.2599L248.022 82.1696Z" fill="#7FD196"/>
<path d="M239.097 76.6141C240.777 76.6321 243.236 76.924 245.42 78.2174C245.376 78.1962 245.327 78.1872 245.279 78.1913C245.23 78.1953 245.184 78.2123 245.144 78.2404C241.84 76.253 236.374 76.1915 232.935 78.1175C229.495 80.0435 229.38 83.2014 232.679 85.1888C235.977 87.1763 241.445 87.2377 244.888 85.3143C248.33 83.3909 248.442 80.2279 245.144 78.2404C245.184 78.2123 245.23 78.1953 245.279 78.1913C245.327 78.1872 245.376 78.1962 245.42 78.2174C245.546 78.2993 245.72 78.3992 245.84 78.4889C249.254 81.009 248.555 84.1234 245.261 85.9725C241.607 88.0214 235.803 87.9523 232.294 85.8419C226.688 82.4586 230.899 76.5322 239.097 76.6141Z" fill="#6D6E71"/>
<path d="M232.678 78.087C236.4 76.0612 241.878 76.12 245.423 78.2176C245.379 78.1965 245.33 78.1875 245.281 78.1916C245.233 78.1956 245.186 78.2126 245.146 78.2407C241.842 76.2533 236.377 76.1918 232.937 78.1178C229.497 80.0438 229.382 83.2016 232.681 85.1891C235.98 87.1765 241.448 87.238 244.89 85.3146C248.332 83.3912 248.445 80.2282 245.146 78.2407C245.186 78.2126 245.233 78.1956 245.281 78.1916C245.33 78.1875 245.379 78.1965 245.423 78.2176C249.239 80.6763 248.765 84.0212 245.264 85.9728C241.609 88.0217 235.805 87.9526 232.297 85.8422C228.481 83.5371 229.223 79.9516 232.678 78.087Z" fill="#7FD196"/>
<path d="M229.738 82.997V82.1723C229.754 86.8029 239.417 89.2257 245.261 85.9679C247.144 84.9179 248.079 83.5169 248.079 82.1262C248.079 83.0764 248.366 85.0664 245.261 86.8003C241.604 88.8492 235.798 88.7801 232.292 86.6697C230.589 85.6452 229.731 84.3237 229.731 83.0047L229.738 82.997Z" fill="#E6E7E8"/>
<path d="M244.744 72.5627C241.141 70.6931 236.262 70.9415 233.142 72.6319C225.571 76.5965 232.01 84.3978 241.906 82.4539C249.078 81.0452 250.084 75.2365 244.744 72.5627Z" fill="#8FDCA5"/>
<path d="M244.327 72.9084C247.162 74.6167 247.064 77.334 244.109 78.9809C241.153 80.6277 236.461 80.5816 233.626 78.8758C230.791 77.1701 230.888 74.4502 233.844 72.8034C236.799 71.1565 241.491 71.2026 244.327 72.9084Z" fill="#8DD6A2"/>
<path d="M247.149 109.351C247.149 109.351 247.133 109.33 247.149 109.351V109.351Z" fill="#14A797"/>
<path d="M239.048 105.735C237.4 105.781 235.754 105.586 234.162 105.156C232.524 104.753 231.011 103.953 229.756 102.825V93.8612C231.268 94.6356 232.865 95.2296 234.515 95.631C236.006 95.9527 237.523 96.1396 239.048 96.1893V105.735Z" fill="#E6E7E8"/>
<path opacity="0.22" d="M146.778 91.3768L122.657 101.801L113.217 100.692L88.5502 82.3642L89.275 75.8307L111.777 63.1069L123.082 64.4439L147.377 85.919L146.778 91.3768Z" fill="#F0F2F3"/>
<path d="M117.232 69.6174L94.6227 82.4692L119.392 100.876L141.627 91.2617L117.232 69.6174Z" fill="#F2CAAA"/>
<path d="M90.0229 72.6727L114.792 91.0797L119.392 100.876L94.6227 82.4691L90.0229 72.6727Z" fill="#F7D7B5"/>
<path d="M93.4958 80.0693L94.6227 82.4691L119.391 100.876L118.265 98.4763L93.4958 80.0693Z" fill="#EAC5A4"/>
<path d="M110.164 94.0173L101.714 87.7399L98.2826 80.433L106.732 86.7103L110.164 94.0173Z" fill="#F7D7B5"/>
<path d="M148.381 82.8047L143.295 89.1768L141.627 91.2616L119.391 100.876L121.059 98.7888L126.145 92.4167L148.381 82.8047Z" fill="#EFCCAF"/>
<path d="M149.106 76.2432L124.711 54.599L113.357 53.2621L90.7477 66.1139L90.0229 72.673L114.792 91.0799L126.145 92.4168L148.379 82.8049L149.106 76.2432Z" fill="#4F4F4F"/>
<path d="M149.846 76.0638L124.852 53.974L113.224 52.6038L90.0767 65.6886L89.3339 72.4065L114.702 91.2591L126.33 92.6293L149.103 82.7817L149.846 76.0638Z" fill="#FCE4CA"/>
<path d="M113.224 52.6038L92.2971 64.4337L119.553 82.3284L123.63 82.815L146.404 72.9674L146.273 69.9401L113.224 52.6038Z" fill="#FCE4CA"/>
<path d="M89.3339 72.4063L114.702 91.2589L122.173 77.5107L96.8048 58.6606L89.3339 72.4063Z" fill="#FFE3C0"/>
<path d="M94.1873 63.4756L119.553 82.3282L122.17 77.5107L96.8048 58.6606L94.1873 63.4756Z" fill="#FFE3C0"/>
<path d="M149.846 76.0637L124.852 53.9738L119.576 48.8131L144.947 67.6657L149.846 76.0637Z" fill="#818181"/>
<path d="M149.103 82.7844L126.33 92.6295L123.63 82.8152L122.173 77.511L144.947 67.666L146.404 72.9676L149.103 82.7844Z" fill="#F9D8B4"/>
<path d="M149.103 82.7843L126.33 92.6293L123.63 82.815L146.404 72.9674L149.103 82.7843Z" fill="#F9D8B4"/>
<path d="M144.947 67.6657L122.173 77.5107L120.224 76.0637L98.7538 60.1078L96.8022 58.6607L119.576 48.8131L121.527 50.2602L142.998 66.2161L144.947 67.6657Z" fill="#FCEDDE"/>
<path d="M97.6909 58.31L119.573 48.8491L144.163 67.1229L122.28 76.5838L97.6909 58.31Z" fill="#FCEDDE"/>
<path d="M120.224 76.0638L112.753 89.8095L108.499 86.649L95.5396 77.0191L91.2829 73.8561L98.7538 60.1079L120.224 76.0638Z" fill="#FFE3C0"/>
<path d="M111.378 79.3576L108.499 86.6491L95.5396 77.0193L100.265 70.4499C100.419 70.2357 100.614 70.0543 100.838 69.9164C101.063 69.7784 101.313 69.6865 101.574 69.6462C101.834 69.6059 102.1 69.618 102.356 69.6817C102.612 69.7453 102.853 69.8594 103.064 70.0171L110.235 75.3417C110.841 75.7926 111.28 76.4303 111.487 77.1561C111.693 77.882 111.655 78.6557 111.378 79.3576Z" fill="#F9E4CD"/>
<path d="M96.8022 58.6606L94.1873 63.4756V63.4782L89.3339 72.4063L90.0767 65.6884L94.446 61.1219L96.8022 58.6606Z" fill="#FCE4CA"/>
<path d="M96.8022 58.6606L94.1873 63.4756L94.446 61.1219L96.8022 58.6606Z" fill="#FCE4CA"/>
<path d="M149.846 76.064L144.947 67.666L149.103 82.7819L149.846 76.064Z" fill="#FCE4CA"/>
<path d="M146.404 72.9676L146.665 70.6113L144.947 67.666L146.404 72.9676Z" fill="#FCE4CA"/>
<path d="M101.822 80.7789L99.325 77.2368L105.623 81.9186L101.822 80.7789Z" fill="#BB7959"/>
<path d="M100.844 76.791C100.572 76.5887 100.562 76.2788 100.751 75.9304L101.051 75.3926C101.228 75.0725 101.504 74.9393 101.766 75.1365C102.027 75.3337 102.045 75.6487 101.858 75.9945L101.558 76.5323C101.376 76.8601 101.125 77.001 100.844 76.7884V76.791ZM101.989 74.7421C101.528 74.3989 101.038 74.5654 100.708 75.1698L100.431 75.6666C100.086 76.289 100.175 76.8524 100.629 77.2033C101.082 77.5542 101.571 77.4005 101.909 76.7782L102.186 76.2813C102.521 75.6769 102.442 75.093 101.986 74.7446L101.989 74.7421Z" fill="#BB7959"/>
<path d="M102.652 76.8474L103.034 76.161L103.402 76.4351C103.482 76.4987 103.534 76.5901 103.549 76.6909C103.564 76.7917 103.54 76.8943 103.482 76.978C103.366 77.188 103.182 77.2342 103.021 77.124L102.652 76.8474ZM103.676 76.0535L102.934 75.5028L101.622 77.8616L101.96 78.1178L102.439 77.2572L102.844 77.5568C103.177 77.813 103.587 77.6875 103.838 77.2367C103.962 77.0555 104.015 76.8343 103.985 76.6164C103.955 76.3986 103.845 76.1997 103.676 76.0586V76.0535Z" fill="#BB7959"/>
<path d="M105.61 77.5005L104.422 76.6169L103.11 78.9757L104.311 79.8696L104.537 79.4649L103.674 78.8246L103.996 78.2433L104.772 78.8195L105 78.4123L104.224 77.836L104.534 77.2777L105.385 77.9078L105.61 77.5005Z" fill="#BB7959"/>
<path d="M107.234 78.7068L106.896 78.4558L105.817 80.3946L105.787 80.3741L106.45 78.1254L105.846 77.6747L104.534 80.0335L104.877 80.2896L105.956 78.3483L105.986 78.3713L105.321 80.6174L105.922 81.0656L107.234 78.7068Z" fill="#BB7959"/>
<path d="M143.295 89.1769L141.627 91.2617L119.391 100.876L121.038 98.7991L121.059 98.7889L143.295 89.1769Z" fill="#EAC5A4"/>
<path d="M121.059 98.7888L118.265 98.4763L119.392 100.876L121.059 98.7888Z" fill="#F2CAAA"/>
<path d="M118.549 54.5552L112.858 57.1727L113.793 57.8539L116.118 56.7834L117.914 58.0921L118.859 57.6567L117.063 56.348L118.533 55.6744L120.552 57.1445L121.502 56.7065L118.549 54.5552Z" fill="#BB7959"/>
<path d="M119.174 60.7121C119.127 60.6855 119.082 60.6564 119.038 60.625C118.72 60.392 118.633 60.1384 118.782 59.8567C118.93 59.575 119.294 59.3137 119.878 59.0474L120.157 58.9193C120.658 58.6716 121.203 58.5254 121.761 58.489C122.125 58.4634 122.49 58.5434 122.811 58.7196C122.857 58.7462 122.903 58.7753 122.946 58.8066C123.261 59.0371 123.348 59.2856 123.202 59.5519C123.056 59.8183 122.69 60.0898 122.099 60.3638L121.819 60.4919C121.318 60.7377 120.773 60.8846 120.216 60.9247C119.851 60.9535 119.485 60.8752 119.164 60.6993L119.174 60.7121ZM123.633 58.1817C123.298 57.9923 122.935 57.8575 122.557 57.7822C122.009 57.6735 121.447 57.6587 120.895 57.7386C120.298 57.8207 119.718 57.9935 119.174 58.2509L118.892 58.3789C118.433 58.5693 118.022 58.8588 117.688 59.2267C117.569 59.3499 117.48 59.5 117.43 59.6644C117.38 59.8288 117.371 60.0027 117.401 60.1717C117.505 60.5406 117.742 60.8576 118.067 61.0604C118.156 61.1261 118.248 61.186 118.344 61.2397C118.679 61.4309 119.043 61.5658 119.422 61.6393C119.967 61.75 120.527 61.7656 121.077 61.6854C121.669 61.6005 122.246 61.4279 122.788 61.1731L123.044 61.0579C123.511 60.8631 123.932 60.5715 124.278 60.2025C124.399 60.0795 124.49 59.9294 124.541 59.7646C124.593 59.5998 124.605 59.425 124.575 59.2548C124.472 58.885 124.235 58.567 123.909 58.3635C123.822 58.2995 123.73 58.2406 123.635 58.1843" fill="#BB7959"/>
<path d="M123.579 63.9213C123.533 63.8947 123.489 63.8656 123.446 63.8343C123.126 63.6012 123.041 63.3476 123.19 63.0787C123.338 62.8098 123.702 62.5357 124.288 62.2694L124.565 62.1413C125.066 61.8939 125.611 61.7477 126.168 61.7111C126.534 61.6855 126.899 61.7655 127.221 61.9416C127.268 61.9682 127.313 61.9973 127.357 62.0286C127.672 62.2591 127.759 62.505 127.613 62.7739C127.467 63.0429 127.101 63.3118 126.509 63.5858L126.232 63.7139C125.729 63.9592 125.184 64.1069 124.626 64.1493C124.261 64.1744 123.896 64.0953 123.574 63.9213H123.579ZM128.046 61.4063C127.711 61.215 127.348 61.0792 126.97 61.0042C126.422 60.8955 125.86 60.8808 125.308 60.9606C124.711 61.0424 124.131 61.2152 123.587 61.4729L123.302 61.6009C122.844 61.792 122.433 62.0814 122.099 62.4487C121.98 62.5725 121.892 62.7227 121.842 62.8869C121.792 63.0511 121.782 63.2247 121.812 63.3937C121.915 63.7636 122.152 64.0815 122.478 64.285C122.565 64.3465 122.654 64.4054 122.749 64.4592C123.087 64.65 123.454 64.7858 123.835 64.8613C124.38 64.9721 124.94 64.9877 125.49 64.9074C126.082 64.8225 126.659 64.6499 127.2 64.3951L127.457 64.2799C127.924 64.0864 128.344 63.7946 128.688 63.4245C128.81 63.3016 128.901 63.1516 128.953 62.9868C129.005 62.8221 129.017 62.6472 128.988 62.4768C128.885 62.107 128.648 61.7891 128.322 61.5856C128.234 61.5213 128.143 61.4623 128.048 61.4088" fill="#BB7959"/>
<path d="M127.679 66.8358C127.618 66.8 127.556 66.7616 127.495 66.718L127.044 66.3876L130.842 64.6409L131.303 64.9764C131.672 65.2326 131.816 65.5168 131.695 65.7934C131.575 66.0701 131.244 66.3415 130.671 66.6053L130.369 66.7436C129.875 66.9829 129.334 67.1114 128.786 67.1201C128.399 67.1241 128.018 67.026 127.682 66.8358H127.679ZM130.86 63.5217L125.175 66.1392L126.581 67.1637C126.675 67.2303 126.773 67.2943 126.875 67.3532C127.224 67.5524 127.602 67.6975 127.994 67.7835C128.548 67.9105 129.12 67.9426 129.685 67.8782C130.263 67.8154 130.828 67.6607 131.357 67.4198L131.613 67.2994C132.06 67.1153 132.456 66.8252 132.766 66.4542C132.878 66.3205 132.956 66.162 132.995 65.9919C133.034 65.8218 133.032 65.6449 132.989 65.4759C132.858 65.0891 132.6 64.7585 132.256 64.5385L130.86 63.514" fill="#BB7959"/>
<path d="M111.621 57.3009C111.44 57.1949 111.247 57.109 111.047 57.0448C110.762 56.9503 110.462 56.9052 110.161 56.9116C109.888 56.9145 109.619 56.9738 109.37 57.0858C108.919 57.2932 108.755 57.598 108.883 58.0129C108.955 58.2137 109.053 58.4041 109.175 58.5789C109.29 58.7297 109.368 58.9051 109.403 59.0911C109.403 59.2013 109.324 59.2986 109.147 59.3754C108.987 59.449 108.808 59.4705 108.635 59.4369C108.492 59.4148 108.356 59.3653 108.233 59.2909C108.189 59.2653 108.148 59.2397 108.105 59.2089C107.649 58.8734 107.659 58.5968 108.138 58.374L107.423 57.8618C107.188 57.9527 106.987 58.117 106.852 58.3305C106.804 58.4226 106.779 58.525 106.779 58.6289C106.779 58.7327 106.804 58.8351 106.852 58.9272C106.976 59.1779 107.164 59.391 107.398 59.5445C107.49 59.6111 107.582 59.67 107.677 59.7263C107.972 59.8979 108.297 60.0125 108.635 60.0644C109.051 60.134 109.479 60.0787 109.864 59.9056C110.205 59.7494 110.394 59.5521 110.435 59.3114C110.476 59.0706 110.369 58.7684 110.118 58.3996C110.004 58.2564 109.924 58.0891 109.885 57.9105C109.875 57.8483 109.888 57.7848 109.922 57.7319C109.956 57.679 110.008 57.6404 110.069 57.6236C110.23 57.552 110.408 57.5306 110.581 57.5621C110.727 57.5841 110.868 57.6336 110.996 57.7081L111.127 57.7926C111.309 57.9258 111.383 58.0488 111.383 58.1768C111.383 58.3049 111.265 58.4073 111.068 58.4995L111.78 59.0117C112.002 58.9262 112.192 58.7718 112.32 58.5712C112.369 58.489 112.397 58.3959 112.401 58.3004C112.406 58.2048 112.387 58.1096 112.346 58.0231C112.234 57.7955 112.063 57.6019 111.852 57.4623C111.772 57.4059 111.688 57.3521 111.595 57.3009" fill="#BB7959"/>
<path d="M112.389 59.2423L110.269 60.2181C109.887 60.3974 109.669 60.5869 109.616 60.7815C109.562 60.9762 109.672 61.1811 109.949 61.3808C109.995 61.4151 110.044 61.4467 110.095 61.4756C110.384 61.6386 110.712 61.7217 111.045 61.7164L110.735 61.8828L111.383 62.3541L114.62 60.8661L113.926 60.3538L111.634 61.409C111.397 61.4375 111.158 61.388 110.953 61.2682C110.916 61.2475 110.881 61.2244 110.848 61.199C110.591 61.0223 110.648 60.8532 110.986 60.6996L113.078 59.7366L112.389 59.2244" fill="#BB7959"/>
<path d="M113.747 63.3145L113.68 63.271C113.463 63.1139 113.42 62.9551 113.55 62.7946L114.874 62.1851C115.104 62.1506 115.339 62.1939 115.542 62.308L115.632 62.3669C115.796 62.4847 115.837 62.623 115.757 62.7511C115.611 62.9398 115.414 63.0829 115.189 63.1634C114.559 63.4554 114.077 63.5041 113.747 63.3145ZM115.14 61.2451L110.661 63.294L111.35 63.8063L112.886 63.1045C112.82 63.3248 112.917 63.5322 113.176 63.7218C113.218 63.7523 113.263 63.7805 113.309 63.8063C113.63 63.9805 113.993 64.0638 114.359 64.047C114.868 64.033 115.369 63.9117 115.829 63.691L115.873 63.6705C116.385 63.4332 116.703 63.1822 116.828 62.9176C116.946 62.6614 116.848 62.4053 116.531 62.1723C116.491 62.1446 116.45 62.1189 116.408 62.0954C116.129 61.9433 115.816 61.8665 115.499 61.8726L115.793 61.7087L115.153 61.2426" fill="#BB7959"/>
<path d="M116.5 65.3172L116.433 65.2737C116.216 65.1149 116.177 64.9561 116.3 64.7973L117.627 64.1877C117.854 64.1539 118.087 64.1962 118.288 64.3081C118.321 64.3286 118.352 64.3465 118.382 64.3696C118.544 64.4874 118.587 64.6257 118.508 64.7538C118.36 64.9415 118.164 65.0843 117.939 65.1661C117.308 65.4546 116.828 65.505 116.5 65.3172ZM117.891 63.2478L113.409 65.2967L114.1 65.8089L115.637 65.1046C115.57 65.3274 115.668 65.5323 115.926 65.7244C115.97 65.7552 116.016 65.7833 116.062 65.8115C116.382 65.984 116.743 66.0663 117.107 66.0497C117.617 66.0357 118.117 65.9144 118.577 65.6937L118.623 65.6732C119.135 65.435 119.461 65.184 119.578 64.9202C119.696 64.6564 119.596 64.408 119.279 64.1775C119.239 64.1478 119.198 64.1205 119.156 64.0955C118.878 63.9446 118.566 63.8679 118.249 63.8727L118.541 63.7114L117.903 63.2452" fill="#BB7959"/>
<path d="M119.23 67.3073L119.156 67.2586C118.984 67.1331 118.933 67.0025 119.005 66.8591C119.145 66.6626 119.343 66.5141 119.571 66.4339C119.852 66.2892 120.159 66.2022 120.475 66.1778C120.672 66.1644 120.869 66.207 121.043 66.3007L121.115 66.3469C121.284 66.4724 121.333 66.603 121.261 66.7515C121.123 66.9482 120.927 67.0969 120.7 67.1767C120.417 67.3221 120.108 67.4092 119.791 67.4328C119.596 67.4433 119.402 67.3998 119.23 67.3073ZM121.625 65.9115C121.417 65.7925 121.193 65.7061 120.959 65.6553C120.628 65.5829 120.288 65.5681 119.952 65.6118C119.603 65.6563 119.263 65.7539 118.943 65.9012L118.905 65.9166C118.393 66.1556 118.097 66.4237 118.019 66.7208C117.939 67.0204 118.088 67.3047 118.459 67.5762C118.522 67.6213 118.587 67.6632 118.654 67.7017C119.005 67.8996 119.399 68.0078 119.801 68.0167C120.331 68.0403 120.858 67.9348 121.338 67.7094L121.553 67.6044C121.986 67.3739 122.227 67.1178 122.273 66.836C122.319 66.5543 122.168 66.2854 121.822 66.0318C121.762 65.9879 121.7 65.9477 121.635 65.9115" fill="#BB7959"/>
<path d="M123.402 67.2612L120.165 68.7518L120.857 69.2512L122.975 68.278C123.224 68.2408 123.479 68.2905 123.697 68.4189C123.738 68.4445 123.779 68.4701 123.817 68.4983C123.896 68.5574 123.972 68.6216 124.043 68.6903L124.883 68.3164C124.834 68.2477 124.775 68.1879 124.706 68.1397L124.619 68.0834C124.331 67.9386 124.006 67.8842 123.687 67.9271L124.055 67.735L123.402 67.2612Z" fill="#BB7959"/>
<path d="M126.235 68.3727L125.438 68.7389L125.062 68.4623L124.429 68.7543L124.806 69.0283L123.062 69.8325C122.46 70.1194 122.398 70.4395 122.882 70.793C122.939 70.8335 122.998 70.8711 123.059 70.9057C123.16 70.966 123.267 71.0174 123.377 71.0593L124.032 70.7597L123.953 70.7161C123.907 70.688 123.858 70.6572 123.807 70.6214C123.704 70.5445 123.664 70.4831 123.676 70.4318C123.689 70.3806 123.758 70.3294 123.879 70.273L125.495 69.5303L125.935 69.853L126.57 69.5611L126.127 69.2383L126.924 68.8721L126.235 68.3599" fill="#BB7959"/>
<path opacity="0.2" d="M131.495 111.141L140.411 120.059L171.854 106.449L164.662 103.473L131.495 111.141Z" fill="#CFD4D9"/>
<path d="M170.097 99.1066L169.344 104.449C169.016 106.775 167.526 107.266 167.526 107.266L147.431 115.339C145.144 116.438 141.194 115.882 141.194 115.882C131.139 114.94 131.291 108.8 131.291 108.8L132.043 103.458C132.043 103.458 131.89 109.605 141.947 110.537C141.947 110.537 145.897 111.093 148.184 109.994L168.276 101.924C168.276 101.924 169.769 101.424 170.097 99.1066Z" fill="#ECECEC"/>
<path d="M170.456 96.5452L170.097 99.1064C169.769 101.429 168.276 101.924 168.276 101.924L148.184 109.994C145.897 111.093 141.947 110.537 141.947 110.537C131.89 109.597 132.044 103.458 132.044 103.458L132.425 100.74C132.566 99.739 132.556 98.4354 132.891 97.4365C132.917 97.3571 132.948 97.2777 132.978 97.2034C132.978 97.1804 132.999 97.1522 133.012 97.1292C133.795 95.3953 136.111 94.8779 137.701 94.2453C143.059 92.1145 148.414 89.8914 153.885 88.0474C155.156 87.6024 156.515 87.4683 157.848 87.6563C159.181 87.8444 160.45 88.3491 161.548 89.1282L169.026 94.9189C170.322 95.8153 170.456 96.5452 170.456 96.5452Z" fill="#EBBE73"/>
<path d="M170.456 96.5453L170.097 99.1064C169.769 101.429 168.276 101.924 168.276 101.924L148.184 109.994C145.897 111.093 141.947 110.537 141.947 110.537C131.89 109.597 132.044 103.458 132.044 103.458L132.73 98.5763C132.73 98.5763 132.576 104.723 142.634 105.658C142.634 105.658 146.583 106.214 148.87 105.115L168.97 97.0575C169.474 96.8391 169.895 96.4671 170.174 95.9946C170.302 96.1585 170.398 96.3454 170.456 96.5453Z" fill="#F3F3F3"/>
<path d="M170.169 95.9819C169.89 96.4544 169.468 96.8264 168.965 97.0448L148.87 105.118C146.583 106.216 142.634 105.66 142.634 105.66C132.576 104.718 132.73 98.5789 132.73 98.5789L132.891 97.4392C132.917 97.3598 132.948 97.2804 132.978 97.2061C132.978 97.1831 132.999 97.1549 133.012 97.1319C133.795 95.398 136.111 94.8806 137.701 94.248C143.059 92.1172 148.414 89.8941 153.885 88.05C155.156 87.6051 156.515 87.471 157.848 87.659C159.181 87.8471 160.45 88.3518 161.548 89.1309L169.026 94.9216C169.465 95.2077 169.851 95.5662 170.169 95.9819Z" fill="#E8E9EA"/>
<path d="M166.358 96.5453L147.592 103.806C147.072 104.007 146.509 104.069 145.958 103.984C145.407 103.899 144.887 103.671 144.452 103.322L136.487 96.9576C136.382 96.8733 136.301 96.763 136.252 96.6376C136.204 96.5122 136.189 96.3762 136.209 96.2432C136.229 96.1101 136.284 95.9848 136.368 95.8796C136.452 95.7744 136.562 95.693 136.687 95.6437L154.226 88.8362C154.922 88.5663 155.676 88.4778 156.416 88.579C157.156 88.6803 157.858 88.9679 158.457 89.415L166.509 95.4363C166.6 95.5047 166.672 95.5963 166.716 95.7016C166.76 95.8069 166.775 95.9221 166.759 96.0352C166.744 96.1483 166.699 96.2552 166.628 96.3449C166.557 96.4346 166.464 96.5038 166.358 96.5453Z" fill="#21242B"/>
<path d="M162.723 95.9307L146.178 102.367L138.7 96.5761L154.515 90.2731L162.723 95.9307Z" fill="#3F434C"/>
<path d="M134.92 98.1768L142.365 104.201C142.365 104.201 133.8 102.759 134.92 98.1768Z" fill="#21242B"/>
<path d="M132.446 105.648C132.446 105.648 132.809 104.751 134.105 105.648C135.401 106.544 139.484 109.489 137.691 110.419C135.301 111.656 131.419 108.188 132.446 105.648Z" fill="#7D7E82"/>
</g>
<defs>
<clipPath id="clip0">
<rect width="165.496" height="119.096" fill="white" transform="translate(88.5502 10.4729)"/>
</clipPath>
</defs>
</svg>
